***** Wrath.Of.Cain.2010.DVDRiP.XViD.MULTISUB-Zen_Bud ******

Format                           : AVI
Format profile                   : OpenDML
File size                        : 700 MiB
Duration                         : 1h 20mn
Overall bit rate                 : 1 214 Kbps
Writing application              : AVI-Mux GUI 1.17.8.3

Video

Format                           : MPEG-4 Visual
Codec ID/Hint                    : XviD
Duration                         : 1h 20mn
Bit rate                         : 1 082 Kbps
Width                            : 720 pixels
Height                           : 576 pixels
Display aspect ratio             : 16:9
Stream size                      : 624 MiB (89%)
Writing library                  : XviD 1.1.2 (UTC 2006-11-01)

Audio

Format                           : MPEG Audio
Codec ID/Hint                    : MP3
Duration                         : 1h 20mn
Bit rate                         : 128 Kbps
Channel(s)                       : 2 channels
Sampling rate                    : 48.0 KHz
Stream size                      : 73.8 MiB (11%)
Language                         : English

Text #1
Language                         : Norwegian

Text #2
Language                         : Swedish

Text #3
Language                         : Finnish

Text #4
Language                         : Icelandic


